<svg width="100" height="100" viewBox="0 0 100 100" fill="none" xmlns="http://www.w3.org/2000/svg">
<rect x="1" y="1" width="98" height="98" fill="black"/>
<rect x="1" y="1" width="98" height="98" fill="url(#paint0_linear_295_2)" fill-opacity="0.6"/>
<rect x="1" y="1" width="98" height="98" stroke="#C59852" stroke-width="2"/>
<path d="M50 19C52.3682 19 54.5672 19.4565 56.597 20.3695C58.7114 21.1995 60.5299 22.3614 62.0522 23.8554C63.5746 25.3494 64.7587 27.1339 65.6045 29.2088C66.5348 31.2008 67 33.3588 67 35.6827V50.249V81H62.8134V50.249V35.6827C62.8134 33.9398 62.4751 32.3213 61.7985 30.8273C61.1219 29.2503 60.1915 27.9224 59.0075 26.8434C57.908 25.6814 56.5547 24.7684 54.9478 24.1044C53.4254 23.4404 51.7761 23.1084 50 23.1084C48.2239 23.1084 46.5323 23.4404 44.9254 24.1044C43.403 24.7684 42.0498 25.6814 40.8657 26.8434C39.7662 27.9224 38.8781 29.2503 38.2015 30.8273C37.5249 32.3213 37.1866 33.9398 37.1866 35.6827V50.249V81H33V50.249V35.6827V19.6225H37.1866V24.7269C38.7935 22.9009 40.6965 21.49 42.8955 20.494C45.0945 19.498 47.4627 19 50 19Z" fill="white"/>
<defs>
<linearGradient id="paint0_linear_295_2" x1="85" y1="85" x2="15" y2="15" gradientUnits="userSpaceOnUse">
<stop/>
<stop offset="0.5" stop-color="#2A2A2A"/>
<stop offset="1"/>
</linearGradient>
</defs>
</svg>
