<svg width="24" height="25" viewBox="0 0 24 25" fill="none" xmlns="http://www.w3.org/2000/svg">
<path d="M17.92 6.745C17.8185 6.50065 17.6243 6.30647 17.38 6.205C17.2598 6.15376 17.1307 6.12658 17 6.125H7C6.73478 6.125 6.48043 6.23036 6.29289 6.41789C6.10536 6.60543 6 6.85978 6 7.125C6 7.39022 6.10536 7.64457 6.29289 7.83211C6.48043 8.01964 6.73478 8.125 7 8.125H14.59L6.29 16.415C6.19627 16.508 6.12188 16.6186 6.07111 16.7404C6.02034 16.8623 5.9942 16.993 5.9942 17.125C5.9942 17.257 6.02034 17.3877 6.07111 17.5096C6.12188 17.6314 6.19627 17.742 6.29 17.835C6.38296 17.9287 6.49356 18.0031 6.61542 18.0539C6.73728 18.1047 6.86799 18.1308 7 18.1308C7.13201 18.1308 7.26272 18.1047 7.38458 18.0539C7.50644 18.0031 7.61704 17.9287 7.71 17.835L16 9.535V17.125C16 17.3902 16.1054 17.6446 16.2929 17.8321C16.4804 18.0196 16.7348 18.125 17 18.125C17.2652 18.125 17.5196 18.0196 17.7071 17.8321C17.8946 17.6446 18 17.3902 18 17.125V7.125C17.9984 6.99432 17.9712 6.86522 17.92 6.745V6.745Z" fill="#C59852"/>
</svg>
